<svg width="272" height="272" viewBox="0 0 272 272" fill="none" xmlns="http://www.w3.org/2000/svg">
<rect width="272" height="272" fill="#6FA4F2"/>
<path opacity="0.5" d="M94.112 124.972C93.428 124.972 92.768 124.906 92.132 124.774C91.508 124.642 90.944 124.45 90.44 124.198C89.948 123.946 89.558 123.634 89.27 123.262C88.982 122.89 88.838 122.47 88.838 122.002C88.838 121.534 88.982 121.114 89.27 120.742C89.558 120.37 89.948 120.058 90.44 119.806C90.944 119.542 91.508 119.344 92.132 119.212C92.768 119.08 93.428 119.014 94.112 119.014C94.796 119.014 95.45 119.08 96.074 119.212C96.71 119.344 97.274 119.542 97.766 119.806C98.27 120.058 98.666 120.37 98.954 120.742C99.242 121.114 99.386 121.534 99.386 122.002C99.386 122.47 99.242 122.89 98.954 123.262C98.666 123.634 98.27 123.946 97.766 124.198C97.274 124.45 96.71 124.642 96.074 124.774C95.45 124.906 94.796 124.972 94.112 124.972ZM94.112 123.784C94.796 123.784 95.426 123.724 96.002 123.604C96.578 123.472 97.034 123.274 97.37 123.01C97.718 122.746 97.892 122.41 97.892 122.002C97.892 121.582 97.718 121.24 97.37 120.976C97.022 120.712 96.56 120.52 95.984 120.4C95.42 120.268 94.796 120.202 94.112 120.202C93.44 120.202 92.816 120.268 92.24 120.4C91.664 120.52 91.202 120.712 90.854 120.976C90.506 121.24 90.332 121.582 90.332 122.002C90.332 122.41 90.506 122.746 90.854 123.01C91.202 123.274 91.664 123.472 92.24 123.604C92.816 123.724 93.44 123.784 94.112 123.784ZM86.858 127.654C86.702 127.654 86.6 127.582 86.552 127.438L86.282 126.484C86.258 126.4 86.258 126.346 86.282 126.322C86.306 126.286 86.36 126.268 86.444 126.268C87.032 126.292 87.704 126.31 88.46 126.322C89.228 126.334 90.044 126.346 90.908 126.358C91.772 126.37 92.654 126.376 93.554 126.376C94.454 126.376 95.342 126.376 96.218 126.376C97.094 126.364 97.922 126.352 98.702 126.34C99.494 126.328 100.202 126.31 100.826 126.286L100.034 126.574L100.916 125.872C100.988 125.812 101.048 125.788 101.096 125.8C101.144 125.8 101.192 125.842 101.24 125.926C101.36 126.118 101.48 126.334 101.6 126.574C101.72 126.802 101.828 127.036 101.924 127.276C101.96 127.372 101.972 127.444 101.96 127.492C101.96 127.54 101.918 127.57 101.834 127.582C101.762 127.594 101.636 127.6 101.456 127.6C100.448 127.588 99.392 127.582 98.288 127.582C97.196 127.57 96.098 127.57 94.994 127.582C93.902 127.582 92.846 127.588 91.826 127.6C90.806 127.6 89.87 127.606 89.018 127.618C88.178 127.63 87.458 127.642 86.858 127.654ZM94.13 134.818C93.182 134.818 92.312 134.71 91.52 134.494C90.74 134.29 90.116 133.966 89.648 133.522C89.18 133.09 88.946 132.532 88.946 131.848C88.946 131.164 89.18 130.606 89.648 130.174C90.116 129.73 90.74 129.406 91.52 129.202C92.312 128.986 93.182 128.878 94.13 128.878C95.078 128.878 95.942 128.986 96.722 129.202C97.502 129.406 98.126 129.73 98.594 130.174C99.062 130.606 99.296 131.164 99.296 131.848C99.296 132.532 99.062 133.09 98.594 133.522C98.126 133.966 97.502 134.29 96.722 134.494C95.942 134.71 95.078 134.818 94.13 134.818ZM94.13 133.648C94.778 133.648 95.372 133.588 95.912 133.468C96.464 133.348 96.908 133.156 97.244 132.892C97.58 132.616 97.748 132.268 97.748 131.848C97.748 131.416 97.58 131.068 97.244 130.804C96.908 130.54 96.464 130.348 95.912 130.228C95.372 130.096 94.778 130.03 94.13 130.03C93.482 130.03 92.876 130.096 92.312 130.228C91.76 130.348 91.31 130.54 90.962 130.804C90.626 131.068 90.458 131.416 90.458 131.848C90.458 132.268 90.626 132.616 90.962 132.892C91.31 133.156 91.76 133.348 92.312 133.468C92.876 133.588 93.482 133.648 94.13 133.648ZM107.84 124.864C107.072 124.864 106.376 124.75 105.752 124.522C105.128 124.282 104.63 123.946 104.258 123.514C103.898 123.07 103.718 122.548 103.718 121.948C103.718 121.348 103.898 120.832 104.258 120.4C104.63 119.968 105.128 119.638 105.752 119.41C106.376 119.17 107.072 119.05 107.84 119.05C108.584 119.05 109.268 119.17 109.892 119.41C110.516 119.638 111.014 119.968 111.386 120.4C111.77 120.832 111.962 121.348 111.962 121.948C111.962 122.548 111.77 123.07 111.386 123.514C111.014 123.946 110.516 124.282 109.892 124.522C109.268 124.75 108.584 124.864 107.84 124.864ZM107.84 123.766C108.32 123.766 108.758 123.7 109.154 123.568C109.562 123.436 109.886 123.238 110.126 122.974C110.378 122.698 110.504 122.356 110.504 121.948C110.504 121.528 110.378 121.186 110.126 120.922C109.886 120.658 109.562 120.466 109.154 120.346C108.758 120.214 108.32 120.148 107.84 120.148C107.324 120.148 106.862 120.214 106.454 120.346C106.058 120.466 105.746 120.658 105.518 120.922C105.29 121.186 105.176 121.528 105.176 121.948C105.176 122.356 105.29 122.698 105.518 122.974C105.746 123.238 106.058 123.436 106.454 123.568C106.862 123.7 107.324 123.766 107.84 123.766ZM114.464 130.75C114.308 130.762 114.23 130.69 114.23 130.534V119.482L114.212 118.906C114.212 118.81 114.23 118.75 114.266 118.726C114.302 118.69 114.362 118.672 114.446 118.672H115.868C116.024 118.672 116.078 118.744 116.03 118.888C115.982 118.984 115.928 119.08 115.868 119.176C115.82 119.272 115.766 119.368 115.706 119.464V130.264C115.706 130.42 115.664 130.528 115.58 130.588C115.496 130.648 115.304 130.69 115.004 130.714L114.464 130.75ZM103.106 127.636C102.95 127.636 102.848 127.564 102.8 127.42L102.53 126.592C102.482 126.436 102.536 126.358 102.692 126.358C103.412 126.346 104.216 126.316 105.104 126.268C106.004 126.208 106.928 126.136 107.876 126.052C108.836 125.968 109.778 125.878 110.702 125.782C111.638 125.674 112.502 125.56 113.294 125.44C113.45 125.428 113.534 125.494 113.546 125.638L113.582 126.16C113.594 126.244 113.582 126.31 113.546 126.358C113.522 126.394 113.462 126.424 113.366 126.448C112.574 126.592 111.722 126.73 110.81 126.862C109.91 126.982 108.998 127.096 108.074 127.204C107.15 127.3 106.262 127.39 105.41 127.474C104.558 127.546 103.79 127.6 103.106 127.636ZM107.21 129.616C107.054 129.628 106.976 129.556 106.976 129.4V126.682H108.524V129.13C108.524 129.286 108.482 129.394 108.398 129.454C108.314 129.514 108.122 129.556 107.822 129.58L107.21 129.616ZM114.716 128.77C113.948 128.758 113.288 128.77 112.736 128.806C112.184 128.83 111.71 128.872 111.314 128.932C111.17 128.968 111.08 128.908 111.044 128.752L110.864 127.906C110.852 127.822 110.858 127.768 110.882 127.744C110.918 127.708 110.978 127.696 111.062 127.708C111.41 127.732 111.758 127.75 112.106 127.762C112.454 127.774 112.838 127.78 113.258 127.78C113.69 127.768 114.176 127.75 114.716 127.726V128.77ZM106.22 134.854C106.064 134.866 105.986 134.794 105.986 134.638V131.02L105.896 130.246C105.86 130.09 105.926 130.012 106.094 130.012H107.552C107.708 130.012 107.756 130.084 107.696 130.228C107.66 130.312 107.624 130.396 107.588 130.48C107.552 130.564 107.51 130.642 107.462 130.714V134.332C107.462 134.488 107.42 134.596 107.336 134.656C107.252 134.728 107.06 134.776 106.76 134.8L106.22 134.854ZM107.156 133.252C107.444 133.264 107.852 133.276 108.38 133.288C108.92 133.3 109.52 133.306 110.18 133.306C110.852 133.306 111.53 133.3 112.214 133.288C112.91 133.276 113.558 133.258 114.158 133.234C114.77 133.21 115.28 133.186 115.688 133.162L114.788 133.648L115.832 132.91C115.964 132.814 116.084 132.82 116.192 132.928C116.36 133.084 116.51 133.264 116.642 133.468C116.774 133.672 116.882 133.87 116.966 134.062C117.026 134.206 117.032 134.296 116.984 134.332C116.936 134.38 116.774 134.41 116.498 134.422C115.922 134.446 115.274 134.464 114.554 134.476C113.834 134.488 113.096 134.494 112.34 134.494C111.596 134.506 110.882 134.506 110.198 134.494C109.514 134.494 108.908 134.482 108.38 134.458C107.864 134.446 107.474 134.428 107.21 134.404L107.156 133.252ZM126.772 130.696C126.616 130.732 126.538 130.666 126.538 130.498V129.85L126.52 129.49V120.814H126.556L127.078 120.436C127.21 120.352 127.336 120.352 127.456 120.436C127.6 120.544 127.738 120.658 127.87 120.778C128.014 120.886 128.152 121.006 128.284 121.138C128.392 121.246 128.386 121.354 128.266 121.462C128.218 121.498 128.17 121.534 128.122 121.57C128.086 121.606 128.038 121.642 127.978 121.678V130.12C127.978 130.276 127.936 130.39 127.852 130.462C127.768 130.534 127.576 130.588 127.276 130.624L126.772 130.696ZM122.758 130.318L122.668 129.058H127.204V130.318H122.758ZM122.056 130.948C121.9 130.96 121.822 130.888 121.822 130.732L121.732 121.786L121.588 120.544C121.552 120.376 121.618 120.31 121.786 120.346L123.064 120.508C123.22 120.544 123.286 120.634 123.262 120.778L123.172 121.444L123.226 129.49L123.19 129.85V130.426C123.19 130.582 123.148 130.696 123.064 130.768C122.98 130.84 122.788 130.888 122.488 130.912L122.056 130.948ZM122.416 122.002V120.85L127.42 120.76V122.002H122.416ZM130.444 134.368C130.288 134.38 130.21 134.308 130.21 134.152V119.878L130.192 119.266C130.192 119.11 130.27 119.032 130.426 119.032H131.524C131.62 119.032 131.68 119.05 131.704 119.086C131.74 119.11 131.752 119.17 131.74 119.266C131.728 119.35 131.716 119.44 131.704 119.536C131.692 119.632 131.68 119.728 131.668 119.824V133.882C131.668 134.038 131.626 134.146 131.542 134.206C131.458 134.266 131.266 134.308 130.966 134.332L130.444 134.368ZM133.522 134.836C133.366 134.848 133.288 134.776 133.288 134.62V119.536L133.27 118.906C133.27 118.75 133.348 118.672 133.504 118.672H134.908C135.064 118.672 135.118 118.744 135.07 118.888C135.022 118.984 134.968 119.08 134.908 119.176C134.86 119.272 134.806 119.368 134.746 119.464V134.35C134.746 134.506 134.704 134.614 134.62 134.674C134.536 134.734 134.344 134.776 134.044 134.8L133.522 134.836ZM131.002 125.566C130.402 125.542 129.862 125.554 129.382 125.602C128.902 125.638 128.482 125.686 128.122 125.746C127.966 125.758 127.876 125.692 127.852 125.548L127.672 124.612C127.636 124.456 127.696 124.384 127.852 124.396C128.356 124.432 128.848 124.456 129.328 124.468C129.808 124.468 130.366 124.444 131.002 124.396V125.566ZM137.314 131.182C137.242 131.23 137.182 131.254 137.134 131.254C137.086 131.254 137.026 131.23 136.954 131.182L136.414 130.696C136.342 130.636 136.306 130.588 136.306 130.552C136.306 130.504 136.342 130.45 136.414 130.39C136.99 129.85 137.524 129.214 138.016 128.482C138.52 127.75 138.952 126.97 139.312 126.142C139.672 125.314 139.942 124.48 140.122 123.64C140.314 122.788 140.386 121.978 140.338 121.21L140.284 120.616C140.272 120.46 140.344 120.388 140.5 120.4L142.102 120.454C142.258 120.466 142.306 120.544 142.246 120.688L142.03 121.264C142.066 121.9 142.012 122.572 141.868 123.28C141.736 123.988 141.532 124.708 141.256 125.44C140.98 126.16 140.638 126.868 140.23 127.564C139.834 128.26 139.39 128.92 138.898 129.544C138.406 130.156 137.878 130.702 137.314 131.182ZM144.766 130.75C144.622 130.702 144.52 130.606 144.46 130.462C144.328 130.114 144.16 129.742 143.956 129.346C143.752 128.938 143.524 128.53 143.272 128.122C143.032 127.714 142.78 127.318 142.516 126.934C142.252 126.55 141.994 126.202 141.742 125.89C141.49 125.578 141.262 125.32 141.058 125.116L141.472 124.18C141.796 124.42 142.156 124.744 142.552 125.152C142.948 125.548 143.338 125.98 143.722 126.448C144.118 126.916 144.478 127.384 144.802 127.852C145.138 128.32 145.402 128.746 145.594 129.13C145.798 129.502 145.9 129.796 145.9 130.012C145.9 130.288 145.786 130.498 145.558 130.642C145.342 130.774 145.078 130.81 144.766 130.75ZM148.15 134.836C147.994 134.848 147.916 134.776 147.916 134.62V119.554L147.898 118.906C147.898 118.75 147.976 118.672 148.132 118.672H149.554C149.71 118.672 149.764 118.744 149.716 118.888C149.668 118.984 149.614 119.08 149.554 119.176C149.506 119.272 149.452 119.368 149.392 119.464V134.35C149.392 134.506 149.35 134.614 149.266 134.674C149.182 134.734 148.99 134.776 148.69 134.8L148.15 134.836ZM152.266 131.236C152.146 131.32 152.038 131.314 151.942 131.218L151.438 130.696C151.39 130.636 151.366 130.588 151.366 130.552C151.366 130.504 151.402 130.456 151.474 130.408C152.05 129.964 152.608 129.43 153.148 128.806C153.7 128.17 154.192 127.468 154.624 126.7C155.068 125.932 155.428 125.11 155.704 124.234C155.98 123.358 156.136 122.452 156.172 121.516L157.756 121.498C157.72 122.23 157.594 122.974 157.378 123.73C157.162 124.474 156.874 125.212 156.514 125.944C156.166 126.664 155.764 127.354 155.308 128.014C154.852 128.674 154.366 129.28 153.85 129.832C153.334 130.372 152.806 130.84 152.266 131.236ZM160.276 131.074C160.18 131.074 160.108 131.062 160.06 131.038C160.012 131.002 159.958 130.954 159.898 130.894C159.658 130.522 159.37 130.132 159.034 129.724C158.71 129.304 158.362 128.89 157.99 128.482C157.618 128.074 157.246 127.684 156.874 127.312C156.502 126.94 156.154 126.616 155.83 126.34L156.208 125.494C156.568 125.734 156.97 126.022 157.414 126.358C157.87 126.682 158.32 127.03 158.764 127.402C159.22 127.762 159.64 128.128 160.024 128.5C160.408 128.86 160.714 129.196 160.942 129.508C161.17 129.82 161.284 130.078 161.284 130.282C161.284 130.426 161.242 130.558 161.158 130.678C161.074 130.798 160.954 130.894 160.798 130.966C160.654 131.026 160.48 131.062 160.276 131.074ZM152.734 121.966C152.578 121.978 152.476 121.906 152.428 121.75L152.23 120.94C152.194 120.844 152.188 120.784 152.212 120.76C152.236 120.724 152.29 120.712 152.374 120.724C152.818 120.748 153.31 120.772 153.85 120.796C154.402 120.808 154.984 120.82 155.596 120.832C156.208 120.832 156.82 120.832 157.432 120.832C158.044 120.82 158.632 120.808 159.196 120.796C159.76 120.772 160.27 120.748 160.726 120.724L159.88 120.868L160.672 120.472C160.756 120.436 160.816 120.43 160.852 120.454C160.888 120.466 160.93 120.508 160.978 120.58C161.062 120.736 161.14 120.904 161.212 121.084C161.284 121.264 161.344 121.444 161.392 121.624C161.416 121.72 161.422 121.792 161.41 121.84C161.398 121.888 161.35 121.918 161.266 121.93C161.194 121.942 161.068 121.948 160.888 121.948C160.12 121.924 159.34 121.906 158.548 121.894C157.768 121.882 157.012 121.876 156.28 121.876C155.548 121.876 154.876 121.888 154.264 121.912C153.664 121.924 153.154 121.942 152.734 121.966ZM163.624 134.836C163.468 134.848 163.39 134.776 163.39 134.62V119.554L163.372 118.906C163.372 118.75 163.45 118.672 163.606 118.672H165.028C165.184 118.672 165.238 118.744 165.19 118.888C165.142 118.984 165.088 119.08 165.028 119.176C164.98 119.272 164.926 119.368 164.866 119.464V134.35C164.866 134.506 164.824 134.614 164.74 134.674C164.656 134.734 164.464 134.776 164.164 134.8L163.624 134.836ZM167.705 130.354C167.657 130.282 167.633 130.228 167.633 130.192C167.645 130.156 167.693 130.12 167.777 130.084C168.773 129.628 169.673 129.034 170.477 128.302C171.281 127.57 171.965 126.772 172.529 125.908C173.105 125.044 173.543 124.174 173.843 123.298C174.143 122.41 174.287 121.594 174.275 120.85L174.329 120.67L174.509 120.418C174.569 120.346 174.623 120.304 174.671 120.292C174.719 120.28 174.785 120.286 174.869 120.31C174.977 120.346 175.097 120.4 175.229 120.472C175.373 120.544 175.511 120.616 175.643 120.688C175.787 120.76 175.913 120.832 176.021 120.904C176.093 120.952 176.129 121 176.129 121.048C176.129 121.096 176.099 121.156 176.039 121.228L175.859 121.426C175.847 122.026 175.715 122.686 175.463 123.406C175.223 124.126 174.881 124.864 174.437 125.62C174.005 126.364 173.489 127.09 172.889 127.798C172.301 128.506 171.641 129.148 170.909 129.724C170.189 130.288 169.421 130.744 168.605 131.092C168.461 131.152 168.341 131.122 168.245 131.002L167.705 130.354ZM168.497 121.984C168.341 121.996 168.239 121.93 168.191 121.786L167.939 120.85C167.915 120.766 167.915 120.712 167.939 120.688C167.963 120.652 168.017 120.634 168.101 120.634H175.013L174.959 121.804C173.939 121.816 172.865 121.84 171.737 121.876C170.609 121.9 169.529 121.936 168.497 121.984ZM178.415 134.836C178.259 134.848 178.181 134.776 178.181 134.62V119.554L178.163 118.906C178.163 118.75 178.241 118.672 178.397 118.672H179.819C179.975 118.672 180.029 118.744 179.981 118.888C179.933 118.984 179.879 119.08 179.819 119.176C179.771 119.272 179.717 119.368 179.657 119.464V134.35C179.657 134.506 179.615 134.614 179.531 134.674C179.447 134.734 179.255 134.776 178.955 134.8L178.415 134.836ZM178.973 127.258V126.106H181.457L182.069 125.746C182.201 125.662 182.303 125.692 182.375 125.836C182.447 126.004 182.519 126.208 182.591 126.448C182.663 126.688 182.717 126.91 182.753 127.114C182.789 127.27 182.723 127.348 182.555 127.348L178.973 127.258ZM57.7781 153.056C56.9141 153.056 56.1821 152.828 55.5821 152.372C54.9941 151.916 54.5441 151.286 54.2321 150.482C53.9201 149.678 53.7641 148.766 53.7641 147.746C53.7641 146.714 53.9201 145.802 54.2321 145.01C54.5441 144.206 54.9941 143.576 55.5821 143.12C56.1821 142.664 56.9141 142.436 57.7781 142.436C58.6421 142.436 59.3681 142.664 59.9561 143.12C60.5561 143.576 61.0061 144.206 61.3061 145.01C61.6181 145.802 61.7741 146.714 61.7741 147.746C61.7741 148.766 61.6181 149.678 61.3061 150.482C61.0061 151.286 60.5561 151.916 59.9561 152.372C59.3681 152.828 58.6421 153.056 57.7781 153.056ZM57.7961 151.94C58.3841 151.94 58.8641 151.766 59.2361 151.418C59.6201 151.058 59.9021 150.566 60.0821 149.942C60.2621 149.306 60.3521 148.574 60.3521 147.746C60.3521 146.906 60.2621 146.174 60.0821 145.55C59.9021 144.926 59.6201 144.44 59.2361 144.092C58.8641 143.732 58.3841 143.552 57.7961 143.552C57.2081 143.552 56.7221 143.732 56.3381 144.092C55.9541 144.44 55.6721 144.926 55.4921 145.55C55.3121 146.174 55.2221 146.906 55.2221 147.746C55.2221 148.574 55.3121 149.306 55.4921 149.942C55.6721 150.566 55.9541 151.058 56.3381 151.418C56.7221 151.766 57.2081 151.94 57.7961 151.94ZM64.5461 156.836C64.3901 156.848 64.3121 156.776 64.3121 156.62V141.554V140.906C64.3001 140.75 64.3721 140.672 64.5281 140.672H65.9501C66.1061 140.672 66.1601 140.744 66.1121 140.888C66.0641 140.984 66.0101 141.08 65.9501 141.176C65.9021 141.272 65.8481 141.368 65.7881 141.464V156.35C65.7881 156.506 65.7461 156.614 65.6621 156.674C65.5781 156.734 65.3861 156.776 65.0861 156.8L64.5461 156.836ZM65.1221 149.258V148.106H67.3361L67.9301 147.764C68.0741 147.68 68.1761 147.71 68.2361 147.854C68.3201 148.022 68.3921 148.226 68.4521 148.466C68.5241 148.694 68.5781 148.91 68.6141 149.114C68.6501 149.27 68.5901 149.348 68.4341 149.348L65.1221 149.258ZM69.5265 149.852C69.3705 149.924 69.2445 149.9 69.1485 149.78L68.6625 149.312C68.5905 149.252 68.5545 149.204 68.5545 149.168C68.5665 149.132 68.6085 149.09 68.6805 149.042C69.2205 148.718 69.7425 148.334 70.2465 147.89C70.7625 147.434 71.2185 146.936 71.6145 146.396C72.0225 145.856 72.3525 145.292 72.6045 144.704C72.8565 144.104 72.9945 143.498 73.0185 142.886L74.6205 142.868C74.5845 143.528 74.4165 144.194 74.1165 144.866C73.8165 145.538 73.4265 146.192 72.9465 146.828C72.4785 147.452 71.9505 148.028 71.3625 148.556C70.7745 149.072 70.1625 149.504 69.5265 149.852ZM76.8885 149.69C76.7445 149.726 76.6245 149.684 76.5285 149.564C76.3125 149.288 76.0545 149.012 75.7545 148.736C75.4665 148.448 75.1485 148.172 74.8005 147.908C74.4645 147.632 74.1105 147.386 73.7385 147.17C73.3665 146.942 73.0005 146.75 72.6405 146.594L73.0005 145.964C73.4205 146.072 73.8465 146.222 74.2785 146.414C74.7225 146.594 75.1425 146.798 75.5385 147.026C75.9465 147.242 76.3065 147.47 76.6185 147.71C76.9425 147.938 77.1945 148.16 77.3745 148.376C77.5665 148.58 77.6625 148.76 77.6625 148.916C77.6625 149.108 77.5905 149.276 77.4465 149.42C77.3025 149.552 77.1165 149.642 76.8885 149.69ZM69.8325 143.3C69.6765 143.312 69.5745 143.246 69.5265 143.102L69.3105 142.274C69.2865 142.178 69.2865 142.118 69.3105 142.094C69.3345 142.058 69.3885 142.046 69.4725 142.058C70.0605 142.106 70.7025 142.142 71.3985 142.166C72.1065 142.19 72.8205 142.202 73.5405 142.202C74.2605 142.202 74.9505 142.19 75.6105 142.166C76.2825 142.13 76.8705 142.088 77.3745 142.04L76.5105 142.202L77.2845 141.878C77.4285 141.794 77.5425 141.83 77.6265 141.986C77.7105 142.142 77.7885 142.304 77.8605 142.472C77.9325 142.628 77.9925 142.79 78.0405 142.958C78.0765 143.054 78.0885 143.126 78.0765 143.174C78.0645 143.222 78.0165 143.252 77.9325 143.264C77.8605 143.276 77.7345 143.276 77.5545 143.264C76.9665 143.24 76.3245 143.222 75.6285 143.21C74.9445 143.198 74.2485 143.192 73.5405 143.192C72.8325 143.192 72.1545 143.204 71.5065 143.228C70.8705 143.24 70.3125 143.264 69.8325 143.3ZM80.3625 149.546C80.2065 149.558 80.1285 149.486 80.1285 149.33V141.248L80.1105 140.906C80.1105 140.75 80.1885 140.672 80.3445 140.672H81.6765C81.8325 140.672 81.8865 140.744 81.8385 140.888C81.7905 140.984 81.7365 141.08 81.6765 141.176C81.6285 141.272 81.5865 141.368 81.5505 141.464V149.078C81.5505 149.234 81.5085 149.342 81.4245 149.402C81.3405 149.462 81.1485 149.504 80.8485 149.528L80.3625 149.546ZM71.8485 152.192C71.6925 152.204 71.5905 152.138 71.5425 151.994L71.2545 150.968C71.2305 150.884 71.2305 150.83 71.2545 150.806C71.2785 150.77 71.3325 150.752 71.4165 150.752C72.9525 150.752 74.4765 150.752 75.9885 150.752C77.5125 150.752 79.0365 150.752 80.5605 150.752L80.4885 151.994C79.3965 151.994 78.3525 152.006 77.3565 152.03C76.3605 152.042 75.4065 152.06 74.4945 152.084C73.5825 152.108 72.7005 152.144 71.8485 152.192ZM80.1825 156.944C80.0265 156.944 79.9485 156.866 79.9485 156.71V151.328L79.9665 150.788L80.1825 150.572C80.2905 150.464 80.4165 150.44 80.5605 150.5C80.7045 150.56 80.8725 150.644 81.0645 150.752C81.2565 150.86 81.4305 150.98 81.5865 151.112C81.7065 151.208 81.7125 151.31 81.6045 151.418L81.4425 151.562V156.368C81.4425 156.524 81.4005 156.638 81.3165 156.71C81.2325 156.782 81.0405 156.842 80.7405 156.89C80.6565 156.902 80.5665 156.908 80.4705 156.908C80.3745 156.92 80.2785 156.932 80.1825 156.944ZM89.3037 143.588C89.1477 143.588 89.0517 143.51 89.0157 143.354L88.7457 142.436C88.7337 142.34 88.7397 142.28 88.7637 142.256C88.7877 142.22 88.8417 142.208 88.9257 142.22C89.6697 142.256 90.4677 142.28 91.3197 142.292C92.1837 142.304 93.0537 142.31 93.9297 142.31C94.8177 142.31 95.6757 142.304 96.5037 142.292C97.3317 142.268 98.0877 142.238 98.7717 142.202L98.0697 142.346L98.8617 141.986C99.0057 141.926 99.1257 141.956 99.2217 142.076C99.3297 142.22 99.4437 142.4 99.5637 142.616C99.6957 142.832 99.8157 143.036 99.9237 143.228C100.008 143.36 100.026 143.45 99.9777 143.498C99.9417 143.534 99.7857 143.552 99.5097 143.552C98.7057 143.54 97.8417 143.534 96.9177 143.534C96.0057 143.522 95.0877 143.522 94.1637 143.534C93.2397 143.534 92.3577 143.54 91.5177 143.552C90.6897 143.552 89.9517 143.564 89.3037 143.588ZM89.5917 150.05C89.4357 150.062 89.3577 149.99 89.3577 149.834V143.012H90.8337V149.6C90.8337 149.756 90.7617 149.858 90.6177 149.906C90.4137 149.954 90.2277 149.99 90.0597 150.014C89.9037 150.038 89.7477 150.05 89.5917 150.05ZM90.2757 148.43C90.5637 148.442 91.0017 148.448 91.5897 148.448C92.1777 148.436 92.8377 148.424 93.5697 148.412C94.3137 148.4 95.0577 148.382 95.8017 148.358C96.5457 148.322 97.2297 148.28 97.8537 148.232C98.4777 148.184 98.9577 148.124 99.2937 148.052L98.2317 148.718L99.3297 147.872C99.4497 147.776 99.5637 147.782 99.6717 147.89C99.8277 148.046 99.9657 148.226 100.086 148.43C100.218 148.622 100.338 148.82 100.446 149.024C100.506 149.156 100.512 149.246 100.464 149.294C100.428 149.342 100.272 149.378 99.9957 149.402C99.4677 149.45 98.8377 149.492 98.1057 149.528C97.3857 149.552 96.6237 149.576 95.8197 149.6C95.0277 149.612 94.2597 149.624 93.5157 149.636C92.7837 149.636 92.1297 149.63 91.5537 149.618C90.9897 149.606 90.5817 149.594 90.3297 149.582L90.2757 148.43ZM87.4497 154.766C87.2937 154.766 87.1917 154.694 87.1437 154.55L86.8737 153.614C86.8497 153.518 86.8497 153.458 86.8737 153.434C86.8977 153.398 86.9517 153.386 87.0357 153.398C87.6237 153.41 88.2957 153.428 89.0517 153.452C89.8197 153.464 90.6357 153.476 91.4997 153.488C92.3637 153.488 93.2457 153.488 94.1457 153.488C95.0457 153.488 95.9337 153.488 96.8097 153.488C97.6857 153.476 98.5137 153.464 99.2937 153.452C100.086 153.44 100.794 153.422 101.418 153.398L100.626 153.686L101.508 152.984C101.58 152.924 101.64 152.9 101.688 152.912C101.736 152.924 101.784 152.966 101.832 153.038C101.952 153.23 102.072 153.446 102.192 153.686C102.312 153.926 102.42 154.166 102.516 154.406C102.552 154.502 102.564 154.574 102.552 154.622C102.552 154.67 102.51 154.7 102.426 154.712C102.354 154.724 102.228 154.73 102.048 154.73C101.04 154.718 99.9837 154.712 98.8797 154.712C97.7877 154.7 96.6897 154.694 95.5857 154.694C94.4937 154.694 93.4377 154.7 92.4177 154.712C91.3977 154.712 90.4617 154.718 89.6097 154.73C88.7697 154.742 88.0497 154.754 87.4497 154.766ZM93.9297 154.154L93.8757 151.112L93.8397 150.302C93.8397 150.146 93.9177 150.068 94.0737 150.068H95.4237C95.5197 150.068 95.5737 150.086 95.5857 150.122C95.6097 150.146 95.6097 150.2 95.5857 150.284C95.5737 150.332 95.5497 150.38 95.5137 150.428C95.4897 150.476 95.4597 150.524 95.4237 150.572L95.3697 154.154H93.9297ZM103.896 150.014C103.752 150.074 103.626 150.05 103.518 149.942L102.996 149.366C102.936 149.306 102.906 149.258 102.906 149.222C102.918 149.186 102.966 149.15 103.05 149.114C103.746 148.766 104.394 148.316 104.994 147.764C105.594 147.212 106.086 146.606 106.47 145.946C106.854 145.274 107.064 144.602 107.1 143.93H108.63C108.594 144.506 108.45 145.088 108.198 145.676C107.958 146.252 107.628 146.816 107.208 147.368C106.788 147.908 106.296 148.406 105.732 148.862C105.18 149.318 104.568 149.702 103.896 150.014ZM110.808 149.87C110.652 149.87 110.52 149.81 110.412 149.69C110.136 149.378 109.806 149.054 109.422 148.718C109.05 148.382 108.648 148.064 108.216 147.764C107.784 147.452 107.352 147.2 106.92 147.008L107.388 146.162C107.856 146.33 108.336 146.546 108.828 146.81C109.332 147.062 109.794 147.332 110.214 147.62C110.646 147.908 110.994 148.184 111.258 148.448C111.522 148.712 111.654 148.934 111.654 149.114C111.654 149.246 111.612 149.372 111.528 149.492C111.456 149.6 111.354 149.69 111.222 149.762C111.102 149.822 110.964 149.858 110.808 149.87ZM103.968 144.596C103.812 144.608 103.716 144.536 103.68 144.38L103.392 143.426C103.38 143.33 103.386 143.27 103.41 143.246C103.434 143.21 103.488 143.198 103.572 143.21C104.1 143.246 104.7 143.276 105.372 143.3C106.044 143.312 106.734 143.324 107.442 143.336C108.162 143.336 108.858 143.33 109.53 143.318C110.202 143.294 110.802 143.264 111.33 143.228L110.448 143.372L111.258 142.904C111.39 142.82 111.498 142.85 111.582 142.994C111.678 143.138 111.78 143.324 111.888 143.552C111.996 143.78 112.104 144.014 112.212 144.254C112.272 144.386 112.278 144.47 112.23 144.506C112.194 144.542 112.038 144.554 111.762 144.542C110.898 144.494 109.986 144.47 109.026 144.47C108.066 144.458 107.148 144.464 106.272 144.488C105.396 144.512 104.628 144.548 103.968 144.596ZM107.064 141.464C107.052 141.308 107.124 141.224 107.28 141.212L108.414 141.122C108.57 141.11 108.648 141.182 108.648 141.338L108.558 143.588H107.154L107.064 141.464ZM113.976 150.194C113.82 150.206 113.742 150.134 113.742 149.978V141.428L113.724 140.906C113.724 140.75 113.802 140.672 113.958 140.672H115.38C115.476 140.672 115.53 140.69 115.542 140.726C115.566 140.75 115.566 140.804 115.542 140.888C115.494 140.984 115.44 141.08 115.38 141.176C115.332 141.272 115.278 141.368 115.218 141.464V149.708C115.218 149.864 115.176 149.972 115.092 150.032C115.008 150.092 114.816 150.134 114.516 150.158L113.976 150.194ZM114.732 147.008V145.856H116.874L117.486 145.514C117.63 145.43 117.732 145.46 117.792 145.604C117.864 145.784 117.936 145.994 118.008 146.234C118.08 146.462 118.134 146.678 118.17 146.882C118.206 147.026 118.14 147.098 117.972 147.098L114.732 147.008ZM105.606 152.48C105.45 152.492 105.348 152.426 105.3 152.282L105.012 151.256C104.988 151.172 104.988 151.118 105.012 151.094C105.036 151.058 105.09 151.04 105.174 151.04C106.71 151.04 108.234 151.04 109.746 151.04C111.27 151.04 112.794 151.04 114.318 151.04L114.246 152.264C113.166 152.264 112.128 152.276 111.132 152.3C110.148 152.312 109.194 152.336 108.27 152.372C107.358 152.396 106.47 152.432 105.606 152.48ZM113.94 156.944C113.784 156.944 113.706 156.866 113.706 156.71V151.616L113.724 151.076L113.94 150.878C114.048 150.77 114.174 150.746 114.318 150.806C114.462 150.866 114.63 150.95 114.822 151.058C115.014 151.154 115.188 151.268 115.344 151.4C115.464 151.496 115.47 151.598 115.362 151.706L115.2 151.85V156.368C115.2 156.524 115.158 156.638 115.074 156.71C114.99 156.782 114.798 156.842 114.498 156.89C114.414 156.902 114.324 156.908 114.228 156.908C114.132 156.92 114.036 156.932 113.94 156.944ZM123.096 153.29C122.316 153.29 121.626 153.14 121.026 152.84C120.438 152.54 119.976 152.126 119.64 151.598C119.316 151.07 119.154 150.458 119.154 149.762C119.154 149.066 119.316 148.454 119.64 147.926C119.976 147.386 120.438 146.966 121.026 146.666C121.626 146.366 122.316 146.216 123.096 146.216C123.876 146.216 124.56 146.366 125.148 146.666C125.748 146.966 126.21 147.386 126.534 147.926C126.87 148.454 127.038 149.066 127.038 149.762C127.038 150.458 126.87 151.07 126.534 151.598C126.21 152.126 125.748 152.54 125.148 152.84C124.56 153.14 123.876 153.29 123.096 153.29ZM123.096 152.174C123.84 152.174 124.44 151.952 124.896 151.508C125.352 151.052 125.58 150.476 125.58 149.78C125.58 149.072 125.346 148.496 124.878 148.052C124.422 147.596 123.828 147.368 123.096 147.368C122.364 147.368 121.77 147.596 121.314 148.052C120.858 148.496 120.63 149.072 120.63 149.78C120.63 150.476 120.858 151.052 121.314 151.508C121.77 151.952 122.364 152.174 123.096 152.174ZM122.286 141.554C122.286 141.458 122.304 141.398 122.34 141.374C122.376 141.338 122.436 141.314 122.52 141.302L123.636 141.248C123.732 141.236 123.792 141.248 123.816 141.284C123.852 141.308 123.864 141.368 123.852 141.464L123.744 143.948L122.376 143.966L122.286 141.554ZM118.812 145.136C118.656 145.148 118.554 145.082 118.506 144.938L118.236 143.984C118.188 143.84 118.242 143.774 118.398 143.786C118.842 143.798 119.364 143.81 119.964 143.822C120.576 143.834 121.218 143.84 121.89 143.84C122.562 143.84 123.228 143.84 123.888 143.84C124.548 143.84 125.16 143.834 125.724 143.822C126.3 143.81 126.786 143.798 127.182 143.786L126.264 143.984L127.182 143.462C127.314 143.378 127.41 143.408 127.47 143.552C127.53 143.708 127.596 143.894 127.668 144.11C127.74 144.326 127.806 144.554 127.866 144.794C127.89 144.89 127.896 144.962 127.884 145.01C127.872 145.058 127.824 145.088 127.74 145.1C127.668 145.112 127.542 145.112 127.362 145.1C126.702 145.064 125.982 145.04 125.202 145.028C124.422 145.016 123.636 145.01 122.844 145.01C122.064 145.01 121.32 145.022 120.612 145.046C119.916 145.07 119.316 145.1 118.812 145.136ZM129.648 156.836C129.492 156.848 129.414 156.776 129.414 156.62V141.554V140.906C129.402 140.75 129.474 140.672 129.63 140.672H131.052C131.208 140.672 131.262 140.744 131.214 140.888C131.166 140.984 131.112 141.08 131.052 141.176C131.004 141.272 130.95 141.368 130.89 141.464V156.35C130.89 156.506 130.848 156.614 130.764 156.674C130.68 156.734 130.488 156.776 130.188 156.8L129.648 156.836ZM130.224 149.258V148.106H132.438L133.032 147.764C133.176 147.68 133.278 147.71 133.338 147.854C133.422 148.022 133.494 148.226 133.554 148.466C133.626 148.694 133.68 148.91 133.716 149.114C133.752 149.27 133.692 149.348 133.536 149.348L130.224 149.258ZM134.179 153.236C134.059 153.32 133.951 153.314 133.855 153.218L133.351 152.696C133.303 152.636 133.279 152.588 133.279 152.552C133.279 152.504 133.315 152.456 133.387 152.408C133.963 151.964 134.521 151.43 135.061 150.806C135.613 150.17 136.105 149.468 136.537 148.7C136.981 147.932 137.341 147.11 137.617 146.234C137.893 145.358 138.049 144.452 138.085 143.516L139.669 143.498C139.633 144.23 139.507 144.974 139.291 145.73C139.075 146.474 138.787 147.212 138.427 147.944C138.079 148.664 137.677 149.354 137.221 150.014C136.765 150.674 136.279 151.28 135.763 151.832C135.247 152.372 134.719 152.84 134.179 153.236ZM142.189 153.074C142.093 153.074 142.021 153.062 141.973 153.038C141.925 153.002 141.871 152.954 141.811 152.894C141.571 152.522 141.283 152.132 140.947 151.724C140.623 151.304 140.275 150.89 139.903 150.482C139.531 150.074 139.159 149.684 138.787 149.312C138.415 148.94 138.067 148.616 137.743 148.34L138.121 147.494C138.481 147.734 138.883 148.022 139.327 148.358C139.783 148.682 140.233 149.03 140.677 149.402C141.133 149.762 141.553 150.128 141.937 150.5C142.321 150.86 142.627 151.196 142.855 151.508C143.083 151.82 143.197 152.078 143.197 152.282C143.197 152.426 143.155 152.558 143.071 152.678C142.987 152.798 142.867 152.894 142.711 152.966C142.567 153.026 142.393 153.062 142.189 153.074ZM134.647 143.966C134.491 143.978 134.389 143.906 134.341 143.75L134.143 142.94C134.107 142.844 134.101 142.784 134.125 142.76C134.149 142.724 134.203 142.712 134.287 142.724C134.731 142.748 135.223 142.772 135.763 142.796C136.315 142.808 136.897 142.82 137.509 142.832C138.121 142.832 138.733 142.832 139.345 142.832C139.957 142.82 140.545 142.808 141.109 142.796C141.673 142.772 142.183 142.748 142.639 142.724L141.793 142.868L142.585 142.472C142.669 142.436 142.729 142.43 142.765 142.454C142.801 142.466 142.843 142.508 142.891 142.58C142.975 142.736 143.053 142.904 143.125 143.084C143.197 143.264 143.257 143.444 143.305 143.624C143.329 143.72 143.335 143.792 143.323 143.84C143.311 143.888 143.263 143.918 143.179 143.93C143.107 143.942 142.981 143.948 142.801 143.948C142.033 143.924 141.253 143.906 140.461 143.894C139.681 143.882 138.925 143.876 138.193 143.876C137.461 143.876 136.789 143.888 136.177 143.912C135.577 143.924 135.067 143.942 134.647 143.966ZM145.537 156.836C145.381 156.848 145.303 156.776 145.303 156.62V141.554L145.285 140.906C145.285 140.75 145.363 140.672 145.519 140.672H146.941C147.097 140.672 147.151 140.744 147.103 140.888C147.055 140.984 147.001 141.08 146.941 141.176C146.893 141.272 146.839 141.368 146.779 141.464V156.35C146.779 156.506 146.737 156.614 146.653 156.674C146.569 156.734 146.377 156.776 146.077 156.8L145.537 156.836ZM156.962 148.34C156.206 148.34 155.522 148.202 154.91 147.926C154.298 147.65 153.812 147.266 153.452 146.774C153.104 146.27 152.93 145.67 152.93 144.974C152.93 144.278 153.104 143.684 153.452 143.192C153.812 142.688 154.298 142.304 154.91 142.04C155.522 141.764 156.206 141.626 156.962 141.626C157.694 141.626 158.366 141.764 158.978 142.04C159.59 142.304 160.076 142.688 160.436 143.192C160.808 143.684 160.994 144.278 160.994 144.974C160.994 145.67 160.808 146.27 160.436 146.774C160.076 147.266 159.59 147.65 158.978 147.926C158.366 148.202 157.694 148.34 156.962 148.34ZM156.962 147.26C157.43 147.26 157.856 147.176 158.24 147.008C158.624 146.828 158.93 146.57 159.158 146.234C159.398 145.886 159.518 145.466 159.518 144.974C159.518 144.482 159.398 144.068 159.158 143.732C158.93 143.384 158.624 143.126 158.24 142.958C157.856 142.778 157.43 142.688 156.962 142.688C156.23 142.688 155.618 142.886 155.126 143.282C154.646 143.666 154.406 144.23 154.406 144.974C154.406 145.718 154.646 146.288 155.126 146.684C155.618 147.068 156.23 147.26 156.962 147.26ZM163.604 148.952C163.448 148.964 163.37 148.892 163.37 148.736V141.41L163.352 140.906C163.352 140.81 163.37 140.75 163.406 140.726C163.442 140.69 163.502 140.672 163.586 140.672H165.008C165.164 140.672 165.218 140.744 165.17 140.888C165.122 140.984 165.068 141.08 165.008 141.176C164.96 141.272 164.906 141.368 164.846 141.464V148.466C164.846 148.622 164.804 148.73 164.72 148.79C164.636 148.85 164.444 148.892 164.144 148.916L163.604 148.952ZM164.414 146.594V145.442H166.52L167.096 145.082C167.228 145.01 167.33 145.04 167.402 145.172C167.486 145.352 167.558 145.562 167.618 145.802C167.69 146.03 167.744 146.246 167.78 146.45C167.816 146.606 167.756 146.678 167.6 146.666L164.414 146.594ZM155.252 156.872C155.096 156.908 155.018 156.842 155.018 156.674V151.22L154.892 150.518C154.88 150.362 154.946 150.284 155.09 150.284H156.404C156.56 150.284 156.614 150.356 156.566 150.5L156.368 151.058V156.332C156.368 156.488 156.326 156.602 156.242 156.674C156.158 156.746 155.966 156.8 155.666 156.836L155.252 156.872ZM155.972 155.432C156.284 155.456 156.626 155.438 156.998 155.378C157.382 155.33 157.748 155.258 158.096 155.162C158.444 155.066 158.726 154.964 158.942 154.856L158.528 155.288L159.032 154.604C159.092 154.532 159.14 154.496 159.176 154.496C159.224 154.496 159.272 154.532 159.32 154.604C159.452 154.76 159.566 154.922 159.662 155.09C159.758 155.258 159.842 155.444 159.914 155.648C159.95 155.744 159.962 155.816 159.95 155.864C159.938 155.924 159.896 155.978 159.824 156.026C159.752 156.074 159.632 156.128 159.464 156.188C159.104 156.284 158.72 156.362 158.312 156.422C157.904 156.482 157.502 156.518 157.106 156.53C156.722 156.542 156.368 156.53 156.044 156.494L155.972 155.432ZM162.686 156.998C161.846 156.998 161.186 156.8 160.706 156.404C160.238 156.008 160.004 155.48 160.004 154.82C160.004 154.148 160.238 153.62 160.706 153.236C161.186 152.84 161.846 152.642 162.686 152.642C163.526 152.642 164.186 152.84 164.666 153.236C165.146 153.62 165.386 154.148 165.386 154.82C165.386 155.48 165.146 156.008 164.666 156.404C164.186 156.8 163.526 156.998 162.686 156.998ZM162.686 155.9C163.142 155.9 163.49 155.798 163.73 155.594C163.97 155.39 164.09 155.126 164.09 154.802C164.09 154.478 163.97 154.214 163.73 154.01C163.49 153.806 163.142 153.704 162.686 153.704C162.23 153.704 161.882 153.806 161.642 154.01C161.402 154.214 161.282 154.478 161.282 154.802C161.282 155.126 161.402 155.39 161.642 155.594C161.882 155.798 162.23 155.9 162.686 155.9ZM161.912 149.852C161.9 149.756 161.912 149.696 161.948 149.672C161.984 149.636 162.044 149.612 162.128 149.6L163.298 149.51C163.394 149.498 163.454 149.51 163.478 149.546C163.514 149.57 163.52 149.63 163.496 149.726L163.298 151.472H162.02L161.912 149.852ZM159.806 152.192C159.638 152.204 159.542 152.138 159.518 151.994L159.266 150.968C159.254 150.872 159.26 150.812 159.284 150.788C159.308 150.752 159.362 150.74 159.446 150.752C159.926 150.8 160.442 150.836 160.994 150.86C161.546 150.872 162.104 150.878 162.668 150.878C163.232 150.878 163.772 150.872 164.288 150.86C164.804 150.848 165.266 150.836 165.674 150.824L164.864 151.148L165.548 150.572C165.62 150.512 165.674 150.488 165.71 150.5C165.746 150.512 165.788 150.56 165.836 150.644C165.896 150.788 165.962 150.968 166.034 151.184C166.118 151.388 166.19 151.61 166.25 151.85C166.274 151.946 166.28 152.018 166.268 152.066C166.256 152.114 166.208 152.144 166.124 152.156C166.052 152.156 165.926 152.144 165.746 152.12C165.05 152.048 164.336 152.006 163.604 151.994C162.872 151.97 162.176 151.976 161.516 152.012C160.868 152.036 160.298 152.096 159.806 152.192ZM172.472 148.934C171.716 148.934 171.032 148.79 170.42 148.502C169.808 148.202 169.322 147.788 168.962 147.26C168.614 146.72 168.44 146.084 168.44 145.352C168.44 144.608 168.614 143.972 168.962 143.444C169.322 142.904 169.808 142.49 170.42 142.202C171.032 141.914 171.716 141.77 172.472 141.77C173.204 141.77 173.87 141.914 174.47 142.202C175.082 142.49 175.574 142.904 175.946 143.444C176.318 143.972 176.504 144.608 176.504 145.352C176.504 146.084 176.318 146.72 175.946 147.26C175.574 147.788 175.082 148.202 174.47 148.502C173.87 148.79 173.204 148.934 172.472 148.934ZM172.472 147.854C172.94 147.854 173.366 147.758 173.75 147.566C174.134 147.362 174.44 147.074 174.668 146.702C174.896 146.33 175.01 145.88 175.01 145.352C175.01 144.824 174.896 144.374 174.668 144.002C174.44 143.63 174.134 143.348 173.75 143.156C173.366 142.952 172.94 142.85 172.472 142.85C171.728 142.85 171.116 143.072 170.636 143.516C170.156 143.948 169.916 144.56 169.916 145.352C169.916 146.144 170.156 146.762 170.636 147.206C171.116 147.638 171.728 147.854 172.472 147.854ZM179.096 149.582C178.94 149.594 178.862 149.522 178.862 149.366V141.41V140.906C178.85 140.81 178.862 140.75 178.898 140.726C178.934 140.69 178.994 140.672 179.078 140.672H180.5C180.656 140.672 180.71 140.744 180.662 140.888C180.614 140.984 180.56 141.08 180.5 141.176C180.452 141.272 180.398 141.368 180.338 141.464V149.096C180.338 149.252 180.296 149.36 180.212 149.42C180.128 149.48 179.936 149.522 179.636 149.546L179.096 149.582ZM179.888 146.81V145.658H181.994L182.588 145.298C182.72 145.214 182.816 145.244 182.876 145.388C182.96 145.568 183.032 145.778 183.092 146.018C183.164 146.246 183.218 146.462 183.254 146.666C183.278 146.75 183.278 146.81 183.254 146.846C183.23 146.882 183.17 146.894 183.074 146.882L179.888 146.81ZM174.83 156.854C174.698 156.938 174.578 156.926 174.47 156.818L173.984 156.314C173.876 156.206 173.888 156.11 174.02 156.026C174.416 155.762 174.8 155.432 175.172 155.036C175.556 154.64 175.892 154.208 176.18 153.74C176.48 153.272 176.714 152.798 176.882 152.318C177.062 151.838 177.146 151.382 177.134 150.95L177.116 150.734C177.08 150.578 177.146 150.506 177.314 150.518L178.61 150.554C178.766 150.566 178.802 150.638 178.718 150.77L178.52 151.076C178.52 151.604 178.424 152.144 178.232 152.696C178.04 153.236 177.77 153.764 177.422 154.28C177.086 154.796 176.696 155.27 176.252 155.702C175.808 156.146 175.334 156.53 174.83 156.854ZM169.556 156.656C169.424 156.74 169.298 156.728 169.178 156.62L168.656 156.134C168.524 156.026 168.53 155.93 168.674 155.846C169.01 155.594 169.346 155.288 169.682 154.928C170.03 154.556 170.348 154.154 170.636 153.722C170.924 153.278 171.152 152.828 171.32 152.372C171.488 151.916 171.566 151.478 171.554 151.058L171.518 150.824C171.506 150.668 171.578 150.596 171.734 150.608L173.084 150.644C173.24 150.656 173.276 150.728 173.192 150.86L172.994 151.184C172.994 151.652 172.892 152.15 172.688 152.678C172.484 153.194 172.214 153.71 171.878 154.226C171.542 154.73 171.17 155.192 170.762 155.612C170.354 156.032 169.952 156.38 169.556 156.656ZM174.686 155.468C174.53 155.48 174.41 155.42 174.326 155.288C174.146 155.024 173.924 154.778 173.66 154.55C173.396 154.322 173.12 154.118 172.832 153.938C172.556 153.758 172.298 153.614 172.058 153.506L172.526 152.588C172.79 152.696 173.084 152.834 173.408 153.002C173.744 153.17 174.062 153.356 174.362 153.56C174.674 153.764 174.926 153.974 175.118 154.19C175.322 154.406 175.424 154.604 175.424 154.784C175.424 154.892 175.388 154.988 175.316 155.072C175.256 155.168 175.172 155.246 175.064 155.306C174.956 155.378 174.83 155.432 174.686 155.468ZM180.788 156.656C180.644 156.644 180.53 156.566 180.446 156.422C180.254 156.074 180.002 155.72 179.69 155.36C179.378 155 179.042 154.658 178.682 154.334C178.322 153.998 177.956 153.71 177.584 153.47L178.088 152.642C178.496 152.858 178.91 153.116 179.33 153.416C179.75 153.704 180.134 154.004 180.482 154.316C180.842 154.628 181.13 154.922 181.346 155.198C181.574 155.474 181.688 155.696 181.688 155.864C181.688 156.008 181.646 156.14 181.562 156.26C181.49 156.38 181.388 156.47 181.256 156.53C181.124 156.602 180.968 156.644 180.788 156.656ZM187.983 153.056C187.119 153.056 186.387 152.828 185.787 152.372C185.199 151.916 184.749 151.286 184.437 150.482C184.125 149.678 183.969 148.766 183.969 147.746C183.969 146.714 184.125 145.802 184.437 145.01C184.749 144.206 185.199 143.576 185.787 143.12C186.387 142.664 187.119 142.436 187.983 142.436C188.847 142.436 189.573 142.664 190.161 143.12C190.761 143.576 191.211 144.206 191.511 145.01C191.823 145.802 191.979 146.714 191.979 147.746C191.979 148.766 191.823 149.678 191.511 150.482C191.211 151.286 190.761 151.916 190.161 152.372C189.573 152.828 188.847 153.056 187.983 153.056ZM188.001 151.94C188.589 151.94 189.069 151.766 189.441 151.418C189.825 151.058 190.107 150.566 190.287 149.942C190.467 149.306 190.557 148.574 190.557 147.746C190.557 146.906 190.467 146.174 190.287 145.55C190.107 144.926 189.825 144.44 189.441 144.092C189.069 143.732 188.589 143.552 188.001 143.552C187.413 143.552 186.927 143.732 186.543 144.092C186.159 144.44 185.877 144.926 185.697 145.55C185.517 146.174 185.427 146.906 185.427 147.746C185.427 148.574 185.517 149.306 185.697 149.942C185.877 150.566 186.159 151.058 186.543 151.418C186.927 151.766 187.413 151.94 188.001 151.94ZM195.633 156.836C195.477 156.848 195.399 156.776 195.399 156.62V141.554L195.381 140.906C195.381 140.75 195.459 140.672 195.615 140.672H197.037C197.193 140.672 197.247 140.744 197.199 140.888C197.151 140.984 197.097 141.08 197.037 141.176C196.989 141.272 196.935 141.368 196.875 141.464V156.35C196.875 156.506 196.833 156.614 196.749 156.674C196.665 156.734 196.473 156.776 196.173 156.8L195.633 156.836ZM196.119 147.836C195.135 147.824 194.283 147.836 193.563 147.872C192.843 147.908 192.213 147.962 191.673 148.034C191.589 148.046 191.529 148.04 191.493 148.016C191.457 147.98 191.427 147.92 191.403 147.836L191.205 146.864C191.193 146.768 191.199 146.708 191.223 146.684C191.259 146.648 191.319 146.636 191.403 146.648C191.871 146.684 192.339 146.714 192.807 146.738C193.275 146.75 193.779 146.75 194.319 146.738C194.859 146.726 195.459 146.708 196.119 146.684V147.836ZM206.229 149.6C205.245 149.6 204.339 149.432 203.511 149.096C202.683 148.76 202.017 148.292 201.513 147.692C201.009 147.092 200.757 146.39 200.757 145.586C200.757 144.782 201.009 144.08 201.513 143.48C202.017 142.88 202.683 142.412 203.511 142.076C204.339 141.74 205.245 141.572 206.229 141.572C207.213 141.572 208.119 141.74 208.947 142.076C209.775 142.412 210.441 142.88 210.945 143.48C211.449 144.08 211.701 144.782 211.701 145.586C211.701 146.39 211.449 147.092 210.945 147.692C210.441 148.292 209.775 148.76 208.947 149.096C208.119 149.432 207.213 149.6 206.229 149.6ZM206.229 148.358C206.973 148.358 207.645 148.238 208.245 147.998C208.845 147.758 209.319 147.434 209.667 147.026C210.027 146.606 210.207 146.126 210.207 145.586C210.207 145.046 210.027 144.572 209.667 144.164C209.319 143.744 208.845 143.42 208.245 143.192C207.645 142.952 206.973 142.832 206.229 142.832C205.497 142.832 204.825 142.952 204.213 143.192C203.613 143.42 203.133 143.744 202.773 144.164C202.425 144.572 202.251 145.046 202.251 145.586C202.251 146.126 202.425 146.606 202.773 147.026C203.133 147.434 203.613 147.758 204.213 147.998C204.825 148.238 205.497 148.358 206.229 148.358ZM198.975 154.82C198.819 154.82 198.717 154.748 198.669 154.604L198.399 153.65C198.375 153.566 198.375 153.512 198.399 153.488C198.423 153.452 198.477 153.434 198.561 153.434C199.149 153.458 199.821 153.476 200.577 153.488C201.345 153.5 202.161 153.512 203.025 153.524C203.889 153.536 204.771 153.542 205.671 153.542C206.571 153.542 207.459 153.542 208.335 153.542C209.211 153.53 210.039 153.518 210.819 153.506C211.611 153.494 212.319 153.476 212.943 153.452L212.151 153.74L213.033 153.038C213.105 152.978 213.165 152.954 213.213 152.966C213.261 152.966 213.309 153.008 213.357 153.092C213.477 153.284 213.597 153.5 213.717 153.74C213.837 153.968 213.945 154.202 214.041 154.442C214.077 154.538 214.089 154.61 214.077 154.658C214.077 154.706 214.035 154.736 213.951 154.748C213.879 154.76 213.753 154.766 213.573 154.766C212.565 154.754 211.509 154.748 210.405 154.748C209.313 154.736 208.215 154.736 207.111 154.748C206.019 154.748 204.963 154.754 203.943 154.766C202.923 154.766 201.987 154.772 201.135 154.784C200.295 154.796 199.575 154.808 198.975 154.82ZM202.683 154.208L202.629 151.202L202.611 150.41C202.599 150.254 202.671 150.176 202.827 150.176H204.105C204.201 150.176 204.255 150.194 204.267 150.23C204.291 150.254 204.291 150.308 204.267 150.392C204.255 150.44 204.231 150.488 204.195 150.536C204.171 150.584 204.141 150.632 204.105 150.68L204.051 154.208H202.683ZM208.425 154.208L208.371 151.202L208.335 150.41C208.335 150.254 208.413 150.176 208.569 150.176H209.847C209.943 150.176 209.997 150.194 210.009 150.23C210.033 150.254 210.033 150.308 210.009 150.392C209.985 150.44 209.955 150.488 209.919 150.536C209.895 150.584 209.871 150.632 209.847 150.68L209.793 154.208H208.425ZM216.574 155.144C216.238 155.144 215.944 155.036 215.692 154.82C215.452 154.604 215.332 154.334 215.332 154.01C215.332 153.674 215.452 153.404 215.692 153.2C215.944 152.984 216.238 152.876 216.574 152.876C216.91 152.876 217.198 152.984 217.438 153.2C217.69 153.404 217.816 153.674 217.816 154.01C217.816 154.334 217.69 154.604 217.438 154.82C217.198 155.036 216.91 155.144 216.574 155.144Z" fill="#F7F7F7"/>
</svg>
