<svg width="303" height="81" viewBox="0 0 303 81" fill="none" xmlns="http://www.w3.org/2000/svg">
<g filter="url(#filter0_b_25_1019)">
<mask id="path-1-inside-1_25_1019" fill="white">
<path d="M44.051 78.392L49.947 78.304C54.083 78.304 56.459 77.336 56.459 74.872V45.128H60.595V78.832C60.595 79.8 60.859 80.064 61.827 80.064L68.075 79.976C72.211 79.976 74.587 79.008 74.587 76.544V5.52798C75.291 4.47197 75.995 3.15198 76.611 1.74397C76.963 0.863974 76.787 0.599976 75.819 0.599976H60.947C59.979 0.599976 59.715 0.863973 59.803 1.83198L60.595 9.92798V32.28H56.459V7.46397C56.811 6.49597 57.251 4.99997 57.515 3.67997C57.779 2.79997 57.515 2.53597 56.547 2.53597H43.259C42.291 2.53597 42.027 2.79997 42.115 3.76797L42.819 11.776V77.16C42.819 78.128 43.083 78.392 44.051 78.392ZM10.259 62.464C15.715 57.536 20.995 47.856 24.603 37.56C26.187 44.424 26.803 52.432 26.011 57.624C25.835 58.592 26.011 58.944 26.891 59.208C34.987 61.584 39.475 59.296 39.475 52.96C39.387 44.424 34.195 32.192 27.859 26.12C28.827 21.72 29.355 17.496 29.355 13.8L31.467 9.75197C31.907 8.95997 31.731 8.69598 30.763 8.60797L11.579 7.99198C10.611 7.90398 10.347 8.16797 10.435 9.13598L10.875 14.416C11.051 27.88 7.17898 45.744 0.930982 53.136C0.314982 53.84 0.314982 54.192 1.01898 54.896L8.41098 62.376C9.11498 63.08 9.46698 63.08 10.259 62.464Z"/>
<path d="M119.703 78.392L125.599 78.304C129.735 78.304 132.111 77.336 132.111 74.872V45.128H136.247V78.832C136.247 79.8 136.511 80.064 137.479 80.064L143.727 79.976C147.863 79.976 150.239 79.008 150.239 76.544V5.52798C150.943 4.47197 151.647 3.15198 152.263 1.74397C152.615 0.863974 152.439 0.599976 151.471 0.599976H136.599C135.631 0.599976 135.367 0.863973 135.455 1.83198L136.247 9.92798V32.28H132.111V7.46397C132.463 6.49597 132.903 4.99997 133.167 3.67997C133.431 2.79997 133.167 2.53597 132.199 2.53597H118.911C117.943 2.53597 117.679 2.79997 117.767 3.76797L118.471 11.776V77.16C118.471 78.128 118.735 78.392 119.703 78.392ZM80.8955 27.176C89.7835 24.624 100.695 24.536 110.991 25.944C116.623 26.824 116.887 26.56 116.271 23.392C115.479 19.608 114.511 16.088 113.543 13.8C113.103 12.92 112.751 12.744 111.871 13.096L106.151 15.296C105.095 15.472 104.039 15.56 102.895 15.56L104.391 6.84797C104.479 5.87998 104.303 5.61597 103.335 5.70397L90.3995 6.49597C89.4315 6.58397 89.2555 6.84797 89.4315 7.81597L91.1035 15.824C85.9115 15.736 80.8955 15.472 77.1995 14.944C76.2315 14.768 76.0555 15.032 76.3195 15.912L79.3995 26.384C79.6635 27.264 80.0155 27.44 80.8955 27.176ZM96.9115 64.048C107.031 64.048 113.983 56.744 113.983 46.096C113.983 35.448 107.031 28.056 96.9115 28.056C86.7035 28.056 79.7515 35.448 79.7515 46.096C79.7515 56.744 86.7035 64.048 96.9115 64.048ZM96.9115 53.928C94.7115 53.928 93.2155 50.76 93.2155 46.096C93.2155 41.432 94.7115 38.176 96.9115 38.176C99.1115 38.176 100.607 41.432 100.607 46.096C100.607 50.76 99.1115 53.928 96.9115 53.928Z"/>
<path d="M162.444 41.08L172.652 40.816C175.996 40.816 178.196 40.112 178.9 38.528H200.812V39.848C200.812 40.816 201.076 41.08 202.044 41.08L212.164 40.816C216.3 40.816 218.676 39.76 218.676 37.296V9.75197C219.292 8.43198 219.996 6.93597 220.524 5.26397C220.788 4.38397 220.612 4.11997 219.644 4.11997H201.516C200.548 4.11997 200.284 4.38397 200.372 5.35197L200.812 11.248V12.304H179.164V9.75197C179.868 8.43198 180.484 6.93597 181.012 5.26397C181.276 4.38397 181.1 4.11997 180.132 4.11997H161.916C160.948 4.11997 160.684 4.38397 160.772 5.35197L161.212 11.248V39.848C161.212 40.816 161.476 41.08 162.444 41.08ZM179.164 29.024V21.544H200.812V29.024H179.164ZM153.908 57.184C161.124 56.48 170.716 56.04 180.924 55.952V79.008C180.924 79.976 181.188 80.24 182.156 80.24L193.42 79.976C197.556 79.888 199.932 78.92 199.932 76.456V56.04C208.996 56.216 217.708 56.568 225.012 57.008C230.732 57.448 230.996 57.096 230.468 53.928C229.324 49.352 226.684 44.952 224.308 42.4C223.604 41.696 223.252 41.696 222.46 42.312L218.764 45.304C202.396 46.8 173.972 46.888 151.444 44.336C150.476 44.16 150.3 44.424 150.476 45.392L152.412 56.128C152.588 57.096 152.94 57.36 153.908 57.184Z"/>
<path d="M283.592 45.128L293.184 44.952C297.32 44.864 299.696 43.808 299.696 41.344V5.52798C300.488 4.47197 301.368 3.15198 302.072 1.74397C302.512 0.863974 302.336 0.599976 301.368 0.599976H282.712C281.745 0.599976 281.48 0.863973 281.568 1.83198L282.36 9.66397V19.784C277.696 19.696 274.616 19.52 272.416 19.168C271.448 18.992 271.184 19.168 271.272 20.136L272.152 29.64C272.241 30.608 272.504 30.784 273.384 30.432C275.672 29.552 278.752 28.232 282.36 27.704V43.896C282.36 44.864 282.624 45.128 283.592 45.128ZM234.312 46.272C241.264 43.72 248.216 38.616 253.496 32.632C256.84 36.328 259.745 40.464 261.768 43.896C262.296 44.688 262.736 44.864 263.704 44.864C270.128 44.512 274.792 41.872 274.968 38.088C275.232 33.952 268.368 29.024 258.16 26.472C260.361 22.952 261.856 19.344 262.296 16C265.112 16 268.016 16.088 270.92 16.264C276.64 16.616 276.904 16.264 276.024 13.096C275.232 10.456 274.352 7.90398 273.296 5.52798C272.944 4.64798 272.592 4.47197 271.712 4.82397L266.96 6.31998C256.488 6.84798 240.648 6.75998 230.176 6.23197C229.208 6.14397 229.032 6.40797 229.208 7.37597L231.232 15.648C231.408 16.616 231.76 16.88 232.728 16.792C236.336 16.528 240.12 16.264 244.08 16.088C243.024 24.008 234.84 33.6 225.776 38.088C224.808 38.352 224.808 38.616 225.512 39.32L232.288 45.744C232.992 46.448 233.344 46.536 234.312 46.272ZM248.128 61.584C259.216 60.44 269.16 59.824 280.16 59.736V79.008C280.16 79.976 280.424 80.24 281.392 80.24C283.944 80.24 287.728 79.888 291.248 79.624C295.384 79.36 297.76 78.216 297.76 75.752V58.064L299.256 56.304C299.872 55.512 299.872 55.16 299.256 54.456C296.704 51.728 293.272 49.088 289.664 47.328C288.784 46.888 288.256 46.976 287.464 47.416L285.264 48.736C271.536 49.176 258.6 49.176 244.784 48.736C243.816 48.736 243.64 49 243.816 49.968L246.632 60.528C246.808 61.496 247.16 61.76 248.128 61.584Z"/>
</mask>
<path d="M44.051 78.392L49.947 78.304C54.083 78.304 56.459 77.336 56.459 74.872V45.128H60.595V78.832C60.595 79.8 60.859 80.064 61.827 80.064L68.075 79.976C72.211 79.976 74.587 79.008 74.587 76.544V5.52798C75.291 4.47197 75.995 3.15198 76.611 1.74397C76.963 0.863974 76.787 0.599976 75.819 0.599976H60.947C59.979 0.599976 59.715 0.863973 59.803 1.83198L60.595 9.92798V32.28H56.459V7.46397C56.811 6.49597 57.251 4.99997 57.515 3.67997C57.779 2.79997 57.515 2.53597 56.547 2.53597H43.259C42.291 2.53597 42.027 2.79997 42.115 3.76797L42.819 11.776V77.16C42.819 78.128 43.083 78.392 44.051 78.392ZM10.259 62.464C15.715 57.536 20.995 47.856 24.603 37.56C26.187 44.424 26.803 52.432 26.011 57.624C25.835 58.592 26.011 58.944 26.891 59.208C34.987 61.584 39.475 59.296 39.475 52.96C39.387 44.424 34.195 32.192 27.859 26.12C28.827 21.72 29.355 17.496 29.355 13.8L31.467 9.75197C31.907 8.95997 31.731 8.69598 30.763 8.60797L11.579 7.99198C10.611 7.90398 10.347 8.16797 10.435 9.13598L10.875 14.416C11.051 27.88 7.17898 45.744 0.930982 53.136C0.314982 53.84 0.314982 54.192 1.01898 54.896L8.41098 62.376C9.11498 63.08 9.46698 63.08 10.259 62.464Z" fill="url(#paint0_linear_25_1019)"/>
<path d="M119.703 78.392L125.599 78.304C129.735 78.304 132.111 77.336 132.111 74.872V45.128H136.247V78.832C136.247 79.8 136.511 80.064 137.479 80.064L143.727 79.976C147.863 79.976 150.239 79.008 150.239 76.544V5.52798C150.943 4.47197 151.647 3.15198 152.263 1.74397C152.615 0.863974 152.439 0.599976 151.471 0.599976H136.599C135.631 0.599976 135.367 0.863973 135.455 1.83198L136.247 9.92798V32.28H132.111V7.46397C132.463 6.49597 132.903 4.99997 133.167 3.67997C133.431 2.79997 133.167 2.53597 132.199 2.53597H118.911C117.943 2.53597 117.679 2.79997 117.767 3.76797L118.471 11.776V77.16C118.471 78.128 118.735 78.392 119.703 78.392ZM80.8955 27.176C89.7835 24.624 100.695 24.536 110.991 25.944C116.623 26.824 116.887 26.56 116.271 23.392C115.479 19.608 114.511 16.088 113.543 13.8C113.103 12.92 112.751 12.744 111.871 13.096L106.151 15.296C105.095 15.472 104.039 15.56 102.895 15.56L104.391 6.84797C104.479 5.87998 104.303 5.61597 103.335 5.70397L90.3995 6.49597C89.4315 6.58397 89.2555 6.84797 89.4315 7.81597L91.1035 15.824C85.9115 15.736 80.8955 15.472 77.1995 14.944C76.2315 14.768 76.0555 15.032 76.3195 15.912L79.3995 26.384C79.6635 27.264 80.0155 27.44 80.8955 27.176ZM96.9115 64.048C107.031 64.048 113.983 56.744 113.983 46.096C113.983 35.448 107.031 28.056 96.9115 28.056C86.7035 28.056 79.7515 35.448 79.7515 46.096C79.7515 56.744 86.7035 64.048 96.9115 64.048ZM96.9115 53.928C94.7115 53.928 93.2155 50.76 93.2155 46.096C93.2155 41.432 94.7115 38.176 96.9115 38.176C99.1115 38.176 100.607 41.432 100.607 46.096C100.607 50.76 99.1115 53.928 96.9115 53.928Z" fill="url(#paint1_linear_25_1019)"/>
<path d="M162.444 41.08L172.652 40.816C175.996 40.816 178.196 40.112 178.9 38.528H200.812V39.848C200.812 40.816 201.076 41.08 202.044 41.08L212.164 40.816C216.3 40.816 218.676 39.76 218.676 37.296V9.75197C219.292 8.43198 219.996 6.93597 220.524 5.26397C220.788 4.38397 220.612 4.11997 219.644 4.11997H201.516C200.548 4.11997 200.284 4.38397 200.372 5.35197L200.812 11.248V12.304H179.164V9.75197C179.868 8.43198 180.484 6.93597 181.012 5.26397C181.276 4.38397 181.1 4.11997 180.132 4.11997H161.916C160.948 4.11997 160.684 4.38397 160.772 5.35197L161.212 11.248V39.848C161.212 40.816 161.476 41.08 162.444 41.08ZM179.164 29.024V21.544H200.812V29.024H179.164ZM153.908 57.184C161.124 56.48 170.716 56.04 180.924 55.952V79.008C180.924 79.976 181.188 80.24 182.156 80.24L193.42 79.976C197.556 79.888 199.932 78.92 199.932 76.456V56.04C208.996 56.216 217.708 56.568 225.012 57.008C230.732 57.448 230.996 57.096 230.468 53.928C229.324 49.352 226.684 44.952 224.308 42.4C223.604 41.696 223.252 41.696 222.46 42.312L218.764 45.304C202.396 46.8 173.972 46.888 151.444 44.336C150.476 44.16 150.3 44.424 150.476 45.392L152.412 56.128C152.588 57.096 152.94 57.36 153.908 57.184Z" fill="url(#paint2_linear_25_1019)"/>
<path d="M283.592 45.128L293.184 44.952C297.32 44.864 299.696 43.808 299.696 41.344V5.52798C300.488 4.47197 301.368 3.15198 302.072 1.74397C302.512 0.863974 302.336 0.599976 301.368 0.599976H282.712C281.745 0.599976 281.48 0.863973 281.568 1.83198L282.36 9.66397V19.784C277.696 19.696 274.616 19.52 272.416 19.168C271.448 18.992 271.184 19.168 271.272 20.136L272.152 29.64C272.241 30.608 272.504 30.784 273.384 30.432C275.672 29.552 278.752 28.232 282.36 27.704V43.896C282.36 44.864 282.624 45.128 283.592 45.128ZM234.312 46.272C241.264 43.72 248.216 38.616 253.496 32.632C256.84 36.328 259.745 40.464 261.768 43.896C262.296 44.688 262.736 44.864 263.704 44.864C270.128 44.512 274.792 41.872 274.968 38.088C275.232 33.952 268.368 29.024 258.16 26.472C260.361 22.952 261.856 19.344 262.296 16C265.112 16 268.016 16.088 270.92 16.264C276.64 16.616 276.904 16.264 276.024 13.096C275.232 10.456 274.352 7.90398 273.296 5.52798C272.944 4.64798 272.592 4.47197 271.712 4.82397L266.96 6.31998C256.488 6.84798 240.648 6.75998 230.176 6.23197C229.208 6.14397 229.032 6.40797 229.208 7.37597L231.232 15.648C231.408 16.616 231.76 16.88 232.728 16.792C236.336 16.528 240.12 16.264 244.08 16.088C243.024 24.008 234.84 33.6 225.776 38.088C224.808 38.352 224.808 38.616 225.512 39.32L232.288 45.744C232.992 46.448 233.344 46.536 234.312 46.272ZM248.128 61.584C259.216 60.44 269.16 59.824 280.16 59.736V79.008C280.16 79.976 280.424 80.24 281.392 80.24C283.944 80.24 287.728 79.888 291.248 79.624C295.384 79.36 297.76 78.216 297.76 75.752V58.064L299.256 56.304C299.872 55.512 299.872 55.16 299.256 54.456C296.704 51.728 293.272 49.088 289.664 47.328C288.784 46.888 288.256 46.976 287.464 47.416L285.264 48.736C271.536 49.176 258.6 49.176 244.784 48.736C243.816 48.736 243.64 49 243.816 49.968L246.632 60.528C246.808 61.496 247.16 61.76 248.128 61.584Z" fill="url(#paint3_linear_25_1019)"/>
<path d="M44.051 78.392L49.947 78.304C54.083 78.304 56.459 77.336 56.459 74.872V45.128H60.595V78.832C60.595 79.8 60.859 80.064 61.827 80.064L68.075 79.976C72.211 79.976 74.587 79.008 74.587 76.544V5.52798C75.291 4.47197 75.995 3.15198 76.611 1.74397C76.963 0.863974 76.787 0.599976 75.819 0.599976H60.947C59.979 0.599976 59.715 0.863973 59.803 1.83198L60.595 9.92798V32.28H56.459V7.46397C56.811 6.49597 57.251 4.99997 57.515 3.67997C57.779 2.79997 57.515 2.53597 56.547 2.53597H43.259C42.291 2.53597 42.027 2.79997 42.115 3.76797L42.819 11.776V77.16C42.819 78.128 43.083 78.392 44.051 78.392ZM10.259 62.464C15.715 57.536 20.995 47.856 24.603 37.56C26.187 44.424 26.803 52.432 26.011 57.624C25.835 58.592 26.011 58.944 26.891 59.208C34.987 61.584 39.475 59.296 39.475 52.96C39.387 44.424 34.195 32.192 27.859 26.12C28.827 21.72 29.355 17.496 29.355 13.8L31.467 9.75197C31.907 8.95997 31.731 8.69598 30.763 8.60797L11.579 7.99198C10.611 7.90398 10.347 8.16797 10.435 9.13598L10.875 14.416C11.051 27.88 7.17898 45.744 0.930982 53.136C0.314982 53.84 0.314982 54.192 1.01898 54.896L8.41098 62.376C9.11498 63.08 9.46698 63.08 10.259 62.464Z" stroke="url(#paint4_linear_25_1019)" stroke-width="2" mask="url(#path-1-inside-1_25_1019)"/>
<path d="M119.703 78.392L125.599 78.304C129.735 78.304 132.111 77.336 132.111 74.872V45.128H136.247V78.832C136.247 79.8 136.511 80.064 137.479 80.064L143.727 79.976C147.863 79.976 150.239 79.008 150.239 76.544V5.52798C150.943 4.47197 151.647 3.15198 152.263 1.74397C152.615 0.863974 152.439 0.599976 151.471 0.599976H136.599C135.631 0.599976 135.367 0.863973 135.455 1.83198L136.247 9.92798V32.28H132.111V7.46397C132.463 6.49597 132.903 4.99997 133.167 3.67997C133.431 2.79997 133.167 2.53597 132.199 2.53597H118.911C117.943 2.53597 117.679 2.79997 117.767 3.76797L118.471 11.776V77.16C118.471 78.128 118.735 78.392 119.703 78.392ZM80.8955 27.176C89.7835 24.624 100.695 24.536 110.991 25.944C116.623 26.824 116.887 26.56 116.271 23.392C115.479 19.608 114.511 16.088 113.543 13.8C113.103 12.92 112.751 12.744 111.871 13.096L106.151 15.296C105.095 15.472 104.039 15.56 102.895 15.56L104.391 6.84797C104.479 5.87998 104.303 5.61597 103.335 5.70397L90.3995 6.49597C89.4315 6.58397 89.2555 6.84797 89.4315 7.81597L91.1035 15.824C85.9115 15.736 80.8955 15.472 77.1995 14.944C76.2315 14.768 76.0555 15.032 76.3195 15.912L79.3995 26.384C79.6635 27.264 80.0155 27.44 80.8955 27.176ZM96.9115 64.048C107.031 64.048 113.983 56.744 113.983 46.096C113.983 35.448 107.031 28.056 96.9115 28.056C86.7035 28.056 79.7515 35.448 79.7515 46.096C79.7515 56.744 86.7035 64.048 96.9115 64.048ZM96.9115 53.928C94.7115 53.928 93.2155 50.76 93.2155 46.096C93.2155 41.432 94.7115 38.176 96.9115 38.176C99.1115 38.176 100.607 41.432 100.607 46.096C100.607 50.76 99.1115 53.928 96.9115 53.928Z" stroke="url(#paint5_linear_25_1019)" stroke-width="2" mask="url(#path-1-inside-1_25_1019)"/>
<path d="M162.444 41.08L172.652 40.816C175.996 40.816 178.196 40.112 178.9 38.528H200.812V39.848C200.812 40.816 201.076 41.08 202.044 41.08L212.164 40.816C216.3 40.816 218.676 39.76 218.676 37.296V9.75197C219.292 8.43198 219.996 6.93597 220.524 5.26397C220.788 4.38397 220.612 4.11997 219.644 4.11997H201.516C200.548 4.11997 200.284 4.38397 200.372 5.35197L200.812 11.248V12.304H179.164V9.75197C179.868 8.43198 180.484 6.93597 181.012 5.26397C181.276 4.38397 181.1 4.11997 180.132 4.11997H161.916C160.948 4.11997 160.684 4.38397 160.772 5.35197L161.212 11.248V39.848C161.212 40.816 161.476 41.08 162.444 41.08ZM179.164 29.024V21.544H200.812V29.024H179.164ZM153.908 57.184C161.124 56.48 170.716 56.04 180.924 55.952V79.008C180.924 79.976 181.188 80.24 182.156 80.24L193.42 79.976C197.556 79.888 199.932 78.92 199.932 76.456V56.04C208.996 56.216 217.708 56.568 225.012 57.008C230.732 57.448 230.996 57.096 230.468 53.928C229.324 49.352 226.684 44.952 224.308 42.4C223.604 41.696 223.252 41.696 222.46 42.312L218.764 45.304C202.396 46.8 173.972 46.888 151.444 44.336C150.476 44.16 150.3 44.424 150.476 45.392L152.412 56.128C152.588 57.096 152.94 57.36 153.908 57.184Z" stroke="url(#paint6_linear_25_1019)" stroke-width="2" mask="url(#path-1-inside-1_25_1019)"/>
<path d="M283.592 45.128L293.184 44.952C297.32 44.864 299.696 43.808 299.696 41.344V5.52798C300.488 4.47197 301.368 3.15198 302.072 1.74397C302.512 0.863974 302.336 0.599976 301.368 0.599976H282.712C281.745 0.599976 281.48 0.863973 281.568 1.83198L282.36 9.66397V19.784C277.696 19.696 274.616 19.52 272.416 19.168C271.448 18.992 271.184 19.168 271.272 20.136L272.152 29.64C272.241 30.608 272.504 30.784 273.384 30.432C275.672 29.552 278.752 28.232 282.36 27.704V43.896C282.36 44.864 282.624 45.128 283.592 45.128ZM234.312 46.272C241.264 43.72 248.216 38.616 253.496 32.632C256.84 36.328 259.745 40.464 261.768 43.896C262.296 44.688 262.736 44.864 263.704 44.864C270.128 44.512 274.792 41.872 274.968 38.088C275.232 33.952 268.368 29.024 258.16 26.472C260.361 22.952 261.856 19.344 262.296 16C265.112 16 268.016 16.088 270.92 16.264C276.64 16.616 276.904 16.264 276.024 13.096C275.232 10.456 274.352 7.90398 273.296 5.52798C272.944 4.64798 272.592 4.47197 271.712 4.82397L266.96 6.31998C256.488 6.84798 240.648 6.75998 230.176 6.23197C229.208 6.14397 229.032 6.40797 229.208 7.37597L231.232 15.648C231.408 16.616 231.76 16.88 232.728 16.792C236.336 16.528 240.12 16.264 244.08 16.088C243.024 24.008 234.84 33.6 225.776 38.088C224.808 38.352 224.808 38.616 225.512 39.32L232.288 45.744C232.992 46.448 233.344 46.536 234.312 46.272ZM248.128 61.584C259.216 60.44 269.16 59.824 280.16 59.736V79.008C280.16 79.976 280.424 80.24 281.392 80.24C283.944 80.24 287.728 79.888 291.248 79.624C295.384 79.36 297.76 78.216 297.76 75.752V58.064L299.256 56.304C299.872 55.512 299.872 55.16 299.256 54.456C296.704 51.728 293.272 49.088 289.664 47.328C288.784 46.888 288.256 46.976 287.464 47.416L285.264 48.736C271.536 49.176 258.6 49.176 244.784 48.736C243.816 48.736 243.64 49 243.816 49.968L246.632 60.528C246.808 61.496 247.16 61.76 248.128 61.584Z" stroke="url(#paint7_linear_25_1019)" stroke-width="2" mask="url(#path-1-inside-1_25_1019)"/>
</g>
<defs>
<filter id="filter0_b_25_1019" x="-99.5206" y="-99.4" width="501.821" height="279.64" filterUnits="userSpaceOnUse" color-interpolation-filters="sRGB">
<feFlood flood-opacity="0" result="BackgroundImageFix"/>
<feGaussianBlur in="BackgroundImageFix" stdDeviation="50"/>
<feComposite in2="SourceAlpha" operator="in" result="effect1_backgroundBlur_25_1019"/>
<feBlend mode="normal" in="SourceGraphic" in2="effect1_backgroundBlur_25_1019" result="shape"/>
</filter>
<linearGradient id="paint0_linear_25_1019" x1="151.39" y1="0.599976" x2="151.39" y2="80.24" gradientUnits="userSpaceOnUse">
<stop stop-color="white" stop-opacity="0.8"/>
<stop offset="1" stop-color="white" stop-opacity="0.6"/>
</linearGradient>
<linearGradient id="paint1_linear_25_1019" x1="151.39" y1="0.599976" x2="151.39" y2="80.24" gradientUnits="userSpaceOnUse">
<stop stop-color="white" stop-opacity="0.8"/>
<stop offset="1" stop-color="white" stop-opacity="0.6"/>
</linearGradient>
<linearGradient id="paint2_linear_25_1019" x1="151.39" y1="0.599976" x2="151.39" y2="80.24" gradientUnits="userSpaceOnUse">
<stop stop-color="white" stop-opacity="0.8"/>
<stop offset="1" stop-color="white" stop-opacity="0.6"/>
</linearGradient>
<linearGradient id="paint3_linear_25_1019" x1="151.39" y1="0.599976" x2="151.39" y2="80.24" gradientUnits="userSpaceOnUse">
<stop stop-color="white" stop-opacity="0.8"/>
<stop offset="1" stop-color="white" stop-opacity="0.6"/>
</linearGradient>
<linearGradient id="paint4_linear_25_1019" x1="151.39" y1="0.599976" x2="151.39" y2="151" gradientUnits="userSpaceOnUse">
<stop stop-color="white"/>
<stop offset="1" stop-color="white" stop-opacity="0"/>
</linearGradient>
<linearGradient id="paint5_linear_25_1019" x1="151.39" y1="0.599976" x2="151.39" y2="151" gradientUnits="userSpaceOnUse">
<stop stop-color="white"/>
<stop offset="1" stop-color="white" stop-opacity="0"/>
</linearGradient>
<linearGradient id="paint6_linear_25_1019" x1="151.39" y1="0.599976" x2="151.39" y2="151" gradientUnits="userSpaceOnUse">
<stop stop-color="white"/>
<stop offset="1" stop-color="white" stop-opacity="0"/>
</linearGradient>
<linearGradient id="paint7_linear_25_1019" x1="151.39" y1="0.599976" x2="151.39" y2="151" gradientUnits="userSpaceOnUse">
<stop stop-color="white"/>
<stop offset="1" stop-color="white" stop-opacity="0"/>
</linearGradient>
</defs>
</svg>
